# xmcd
# Track frame offsets:
# 150
# 14710
# 28309
# 43377
# 60419
# 76118
# 92021
# 105532
# 128016
# 143400
# 161322
#
# Disc length: 2397 seconds
# Revision: 0
# Processed by: cddbd v1.5.1PL2 Copyright (c) Steve Scherf et al.
# Submitted via: VisiTrax 2.9.10.228 - For more info visit www.synapsa.com
#
DISCID=84095b0b
DTITLE=Danielle Peck - Danielle Peck
DYEAR=2006
DGENRE=
TTITLE0=Finding a Good Man
TTITLE1=Ist´t that erverything
TTITLE2=Kiss you on the Mouth
TTITLE3=Falling Apart
TTITLE4=I Don`t
TTITLE5=Sucks to be you
TTITLE6=Honky-tonk time
TTITLE7=Thisty again
TTITLE8=Only the Lonley talkin`
TTITLE9=A woman does too
TTITLE10=Somebody for you
EXTD=
EXTT0=
EXTT1=
EXTT2=
EXTT3=
EXTT4=
EXTT5=
EXTT6=
EXTT7=
EXTT8=
EXTT9=
EXTT10=
PLAYORDER=
